<svg xmlns="http://www.w3.org/2000/svg" xmlns:xlink="http://www.w3.org/1999/xlink" width="500" zoomAndPan="magnify" viewBox="0 0 375 374.999991" height="500" preserveAspectRatio="xMidYMid meet" version="1.0"><defs><clipPath id="ccb242345c"><path d="M 12 34.773438 L 362.953125 34.773438 L 362.953125 340.023438 L 12 340.023438 Z M 12 34.773438 " clip-rule="nonzero"/></clipPath></defs><path fill="#ffffff" d="M 122.925781 243.496094 L 135.902344 243.496094 L 135.902344 230.519531 L 122.925781 230.519531 L 122.925781 243.496094 " fill-opacity="1" fill-rule="nonzero"/><path fill="#ffffff" d="M 252.714844 230.519531 L 239.734375 230.519531 L 239.734375 243.496094 L 252.714844 243.496094 L 252.714844 230.519531 " fill-opacity="1" fill-rule="nonzero"/><path fill="#ffffff" d="M 181.328125 185.089844 L 181.328125 196.601562 C 170.480469 197.4375 161.863281 206.460938 161.863281 217.539062 L 161.863281 222.40625 C 161.863281 234.015625 171.316406 243.496094 182.953125 243.496094 L 192.6875 243.496094 C 197.171875 243.496094 200.796875 247.121094 200.796875 251.609375 L 200.796875 256.476562 C 200.796875 260.9375 197.171875 264.585938 192.6875 264.585938 L 182.953125 264.585938 C 178.464844 264.585938 174.839844 260.9375 174.839844 256.476562 L 161.863281 256.476562 C 161.863281 267.527344 170.480469 276.550781 181.328125 277.390625 L 181.328125 288.921875 L 194.308594 288.921875 L 194.308594 277.390625 C 205.160156 276.550781 213.777344 267.527344 213.777344 256.476562 L 213.777344 251.609375 C 213.777344 239.972656 204.320312 230.519531 192.6875 230.519531 L 182.953125 230.519531 C 178.464844 230.519531 174.839844 226.867188 174.839844 222.40625 L 174.839844 217.539062 C 174.839844 213.050781 178.464844 209.425781 182.953125 209.425781 L 192.6875 209.425781 C 197.171875 209.425781 200.796875 213.050781 200.796875 217.539062 L 213.777344 217.539062 C 213.777344 206.460938 205.160156 197.4375 194.308594 196.601562 L 194.308594 185.089844 L 181.328125 185.089844 " fill-opacity="1" fill-rule="nonzero"/><g clip-path="url(#ccb242345c)"><path fill="#ffffff" d="M 51.996094 221.542969 L 76.382812 249.984375 L 64.519531 249.984375 C 62.59375 249.984375 60.742188 250.847656 59.5 252.34375 C 58.28125 253.8125 57.777344 255.792969 58.15625 257.691406 C 63.960938 287.628906 78.207031 306.820312 92.988281 319.011719 C 56.355469 300.734375 47.941406 257.335938 47.507812 254.929688 C 46.953125 251.835938 44.238281 249.605469 41.121094 249.605469 C 41.070312 249.605469 41.046875 249.605469 41.019531 249.605469 L 31.867188 249.757812 Z M 58.03125 74.769531 C 58.03125 71.171875 60.945312 68.28125 64.519531 68.28125 L 174.839844 68.28125 C 178.414062 68.28125 181.328125 71.171875 181.328125 74.769531 L 181.328125 81.257812 C 181.328125 84.832031 178.414062 87.75 174.839844 87.75 L 64.519531 87.75 C 60.945312 87.75 58.03125 84.832031 58.03125 81.257812 Z M 265.691406 237.007812 C 265.691406 253.511719 260.574219 269.152344 250.992188 282.433594 L 226.757812 282.433594 C 216.007812 282.433594 207.289062 291.152344 207.289062 301.902344 L 207.289062 308.367188 C 207.289062 309.710938 207.441406 311.027344 207.695312 312.296875 C 201.230469 313.992188 194.5625 314.855469 187.820312 314.855469 C 144.878906 314.855469 109.945312 279.925781 109.945312 237.007812 C 109.945312 194.066406 144.878906 159.132812 187.820312 159.132812 C 230.761719 159.132812 265.691406 194.066406 265.691406 237.007812 Z M 311.121094 198.070312 C 314.695312 198.070312 317.609375 200.960938 317.609375 204.558594 L 317.609375 211.050781 C 317.609375 214.625 314.695312 217.539062 311.121094 217.539062 L 276.519531 217.539062 C 275.023438 210.71875 272.714844 204.203125 269.773438 198.070312 Z M 278.34375 230.519531 L 311.121094 230.519531 C 314.695312 230.519531 317.609375 233.40625 317.609375 237.007812 L 317.609375 243.496094 C 317.609375 247.070312 314.695312 249.984375 311.121094 249.984375 L 277.710938 249.984375 C 278.316406 245.703125 278.671875 241.394531 278.671875 237.007812 C 278.671875 234.800781 278.496094 232.671875 278.34375 230.519531 Z M 266.453125 282.433594 C 270.027344 276.25 272.84375 269.734375 274.84375 262.964844 L 311.121094 262.964844 C 314.695312 262.964844 317.609375 265.855469 317.609375 269.453125 L 317.609375 275.945312 C 317.609375 279.519531 314.695312 282.433594 311.121094 282.433594 Z M 343.566406 301.902344 L 343.566406 308.367188 C 343.566406 311.964844 340.652344 314.855469 337.078125 314.855469 L 226.757812 314.855469 C 223.183594 314.855469 220.265625 311.964844 220.265625 308.367188 L 220.265625 301.902344 C 220.265625 298.300781 223.183594 295.414062 226.757812 295.414062 L 337.078125 295.414062 C 340.652344 295.414062 343.566406 298.300781 343.566406 301.902344 Z M 97.296875 230.519531 C 97.144531 232.671875 96.964844 234.800781 96.964844 237.007812 C 96.964844 241.417969 97.398438 245.726562 98.003906 249.984375 L 93.46875 249.984375 L 76.761719 230.519531 Z M 58.03125 113.707031 L 58.03125 107.21875 C 58.03125 103.617188 60.945312 100.726562 64.519531 100.726562 L 174.839844 100.726562 C 178.414062 100.726562 181.328125 103.617188 181.328125 107.21875 L 181.328125 113.707031 C 181.328125 117.28125 178.414062 120.195312 174.839844 120.195312 L 64.519531 120.195312 C 60.945312 120.195312 58.03125 117.28125 58.03125 113.707031 Z M 58.03125 146.152344 L 58.03125 139.664062 C 58.03125 136.066406 60.945312 133.175781 64.519531 133.175781 L 174.839844 133.175781 C 178.414062 133.175781 181.328125 136.066406 181.328125 139.664062 L 181.328125 146.152344 C 181.328125 146.253906 181.277344 146.355469 181.277344 146.457031 C 171.824219 147.144531 162.75 149.246094 154.308594 152.644531 L 64.519531 152.644531 C 60.945312 152.644531 58.03125 149.730469 58.03125 146.152344 Z M 58.03125 178.601562 L 58.03125 172.113281 C 58.03125 168.511719 60.945312 165.621094 64.519531 165.621094 L 131.796875 165.621094 C 124.75 171.148438 118.511719 177.714844 113.367188 185.089844 L 64.519531 185.089844 C 60.945312 185.089844 58.03125 182.175781 58.03125 178.601562 Z M 58.03125 204.558594 C 58.03125 200.960938 60.945312 198.070312 64.519531 198.070312 L 105.863281 198.070312 C 102.921875 204.203125 100.617188 210.71875 99.121094 217.539062 L 65.632812 217.539062 L 58.03125 208.640625 Z M 80.007812 282.433594 C 77.117188 276.679688 74.582031 270.242188 72.65625 262.964844 L 100.792969 262.964844 C 102.847656 269.835938 105.710938 276.324219 109.261719 282.433594 Z M 13.339844 259.492188 C 14.480469 261.621094 16.683594 262.964844 19.09375 262.964844 C 19.144531 262.964844 19.167969 262.964844 19.195312 262.964844 L 36.050781 262.660156 C 41.070312 281.089844 62.414062 340.003906 128.933594 340.003906 C 131.746094 340.003906 134.609375 339.902344 137.601562 339.671875 C 140.898438 339.445312 143.484375 336.757812 143.585938 333.4375 C 143.710938 330.117188 141.304688 327.25 138.007812 326.769531 C 136.386719 326.542969 108.09375 322.082031 88.070312 295.414062 L 118.335938 295.414062 C 134.992188 315.210938 159.960938 327.835938 187.820312 327.835938 C 197.046875 327.835938 206.121094 326.390625 214.84375 323.652344 C 218.136719 326.238281 222.242188 327.835938 226.757812 327.835938 L 337.078125 327.835938 C 347.824219 327.835938 356.546875 319.113281 356.546875 308.367188 L 356.546875 301.902344 C 356.546875 291.152344 347.824219 282.433594 337.078125 282.433594 L 329.398438 282.433594 C 330.105469 280.378906 330.589844 278.226562 330.589844 275.945312 L 330.589844 269.453125 C 330.589844 264.433594 328.636719 259.921875 325.519531 256.476562 C 328.636719 253.003906 330.589844 248.492188 330.589844 243.496094 L 330.589844 237.007812 C 330.589844 231.988281 328.636719 227.476562 325.519531 224.027344 C 328.636719 220.554688 330.589844 216.042969 330.589844 211.050781 L 330.589844 204.558594 C 330.589844 193.8125 321.867188 185.089844 311.121094 185.089844 L 262.269531 185.089844 C 246.984375 163.238281 222.394531 148.460938 194.257812 146.457031 C 194.257812 146.355469 194.308594 146.253906 194.308594 146.152344 L 194.308594 139.664062 C 194.308594 134.976562 192.585938 130.742188 189.820312 127.371094 L 233.550781 83.640625 L 280.902344 125.0625 C 283.539062 127.371094 287.542969 127.167969 289.953125 124.554688 L 350.058594 59.003906 L 350.058594 73.933594 L 363.035156 73.933594 L 363.035156 41.484375 C 363.035156 37.910156 360.121094 34.996094 356.546875 34.996094 L 324.097656 34.996094 L 324.097656 47.976562 L 342.554688 47.976562 L 284.65625 111.121094 L 237.503906 69.878906 C 234.96875 67.621094 231.066406 67.746094 228.65625 70.15625 L 194.054688 104.757812 C 193.546875 100.726562 191.824219 97.101562 189.238281 94.238281 C 192.355469 90.765625 194.308594 86.253906 194.308594 81.257812 L 194.308594 74.769531 C 194.308594 64.019531 185.589844 55.300781 174.839844 55.300781 L 64.519531 55.300781 C 53.769531 55.300781 45.050781 64.019531 45.050781 74.769531 L 45.050781 81.257812 C 45.050781 86.253906 47.003906 90.765625 50.121094 94.238281 C 47.003906 97.6875 45.050781 102.199219 45.050781 107.21875 L 45.050781 113.707031 C 45.050781 118.699219 47.003906 123.210938 50.121094 126.6875 C 47.003906 130.132812 45.050781 134.644531 45.050781 139.664062 L 45.050781 146.152344 C 45.050781 151.148438 47.003906 155.660156 50.121094 159.132812 C 47.003906 162.582031 45.050781 167.09375 45.050781 172.113281 L 45.050781 178.601562 C 45.050781 183.59375 47.003906 188.109375 50.121094 191.582031 C 47.003906 195.027344 45.050781 199.539062 45.050781 204.558594 L 45.050781 208.945312 L 13.820312 252.699219 C 12.398438 254.675781 12.195312 257.3125 13.339844 259.492188 " fill-opacity="1" fill-rule="nonzero"/></g></svg>