<svg xmlns="http://www.w3.org/2000/svg" xmlns:xlink="http://www.w3.org/1999/xlink" width="100" zoomAndPan="magnify" viewBox="0 0 375 374.999991" height="100" preserveAspectRatio="xMidYMid meet" version="1.0"><defs><g/><clipPath id="2cef4725d4"><path d="M 99 52.050781 L 275.8125 52.050781 L 275.8125 206.550781 L 99 206.550781 Z M 99 52.050781 " clip-rule="nonzero"/></clipPath></defs><path fill="#001729" d="M 154.875 157.496094 L 161.433594 157.496094 L 161.433594 150.9375 L 154.875 150.9375 L 154.875 157.496094 " fill-opacity="1" fill-rule="nonzero"/><path fill="#001729" d="M 220.445312 150.9375 L 213.886719 150.9375 L 213.886719 157.496094 L 220.445312 157.496094 L 220.445312 150.9375 " fill-opacity="1" fill-rule="nonzero"/><path fill="#001729" d="M 184.378906 127.988281 L 184.378906 133.804688 C 178.898438 134.226562 174.546875 138.785156 174.546875 144.378906 L 174.546875 146.839844 C 174.546875 152.703125 179.324219 157.496094 185.199219 157.496094 L 190.117188 157.496094 C 192.386719 157.496094 194.214844 159.324219 194.214844 161.59375 L 194.214844 164.050781 C 194.214844 166.304688 192.386719 168.148438 190.117188 168.148438 L 185.199219 168.148438 C 182.933594 168.148438 181.101562 166.304688 181.101562 164.050781 L 174.546875 164.050781 C 174.546875 169.636719 178.898438 174.195312 184.378906 174.617188 L 184.378906 180.445312 L 190.9375 180.445312 L 190.9375 174.617188 C 196.417969 174.195312 200.773438 169.636719 200.773438 164.050781 L 200.773438 161.59375 C 200.773438 155.714844 195.996094 150.9375 190.117188 150.9375 L 185.199219 150.9375 C 182.933594 150.9375 181.101562 149.09375 181.101562 146.839844 L 181.101562 144.378906 C 181.101562 142.113281 182.933594 140.28125 185.199219 140.28125 L 190.117188 140.28125 C 192.386719 140.28125 194.214844 142.113281 194.214844 144.378906 L 200.773438 144.378906 C 200.773438 138.785156 196.417969 134.226562 190.9375 133.804688 L 190.9375 127.988281 L 184.378906 127.988281 " fill-opacity="1" fill-rule="nonzero"/><g clip-path="url(#2cef4725d4)"><path fill="#001729" d="M 119.042969 146.402344 L 131.363281 160.773438 L 125.367188 160.773438 C 124.394531 160.773438 123.460938 161.207031 122.832031 161.964844 C 122.21875 162.707031 121.960938 163.707031 122.15625 164.667969 C 125.085938 179.789062 132.285156 189.484375 139.75 195.644531 C 121.246094 186.410156 116.992188 164.488281 116.777344 163.269531 C 116.496094 161.707031 115.125 160.582031 113.546875 160.582031 C 113.523438 160.582031 113.511719 160.582031 113.496094 160.582031 L 108.875 160.65625 Z M 122.089844 72.253906 C 122.089844 70.4375 123.5625 68.976562 125.367188 68.976562 L 181.101562 68.976562 C 182.90625 68.976562 184.378906 70.4375 184.378906 72.253906 L 184.378906 75.535156 C 184.378906 77.339844 182.90625 78.8125 181.101562 78.8125 L 125.367188 78.8125 C 123.5625 78.8125 122.089844 77.339844 122.089844 75.535156 Z M 227 154.214844 C 227 162.554688 224.414062 170.453125 219.574219 177.164062 L 207.328125 177.164062 C 201.898438 177.164062 197.496094 181.570312 197.496094 187 L 197.496094 190.265625 C 197.496094 190.945312 197.570312 191.609375 197.699219 192.25 C 194.433594 193.109375 191.066406 193.542969 187.660156 193.542969 C 165.964844 193.542969 148.316406 175.898438 148.316406 154.214844 C 148.316406 132.523438 165.964844 114.875 187.660156 114.875 C 209.351562 114.875 227 132.523438 227 154.214844 Z M 249.949219 134.546875 C 251.753906 134.546875 253.226562 136.003906 253.226562 137.824219 L 253.226562 141.101562 C 253.226562 142.90625 251.753906 144.378906 249.949219 144.378906 L 232.46875 144.378906 C 231.714844 140.9375 230.546875 137.644531 229.0625 134.546875 Z M 233.390625 150.9375 L 249.949219 150.9375 C 251.753906 150.9375 253.226562 152.398438 253.226562 154.214844 L 253.226562 157.496094 C 253.226562 159.300781 251.753906 160.773438 249.949219 160.773438 L 233.070312 160.773438 C 233.378906 158.609375 233.558594 156.429688 233.558594 154.214844 C 233.558594 153.101562 233.46875 152.027344 233.390625 150.9375 Z M 227.382812 177.164062 C 229.191406 174.039062 230.613281 170.75 231.625 167.328125 L 249.949219 167.328125 C 251.753906 167.328125 253.226562 168.789062 253.226562 170.609375 L 253.226562 173.886719 C 253.226562 175.691406 251.753906 177.164062 249.949219 177.164062 Z M 266.339844 187 L 266.339844 190.265625 C 266.339844 192.085938 264.867188 193.542969 263.0625 193.542969 L 207.328125 193.542969 C 205.523438 193.542969 204.050781 192.085938 204.050781 190.265625 L 204.050781 187 C 204.050781 185.183594 205.523438 183.722656 207.328125 183.722656 L 263.0625 183.722656 C 264.867188 183.722656 266.339844 185.183594 266.339844 187 Z M 141.925781 150.9375 C 141.851562 152.027344 141.761719 153.101562 141.761719 154.214844 C 141.761719 156.445312 141.980469 158.621094 142.285156 160.773438 L 139.992188 160.773438 L 131.554688 150.9375 Z M 122.089844 91.925781 L 122.089844 88.648438 C 122.089844 86.828125 123.5625 85.367188 125.367188 85.367188 L 181.101562 85.367188 C 182.90625 85.367188 184.378906 86.828125 184.378906 88.648438 L 184.378906 91.925781 C 184.378906 93.730469 182.90625 95.203125 181.101562 95.203125 L 125.367188 95.203125 C 123.5625 95.203125 122.089844 93.730469 122.089844 91.925781 Z M 122.089844 108.316406 L 122.089844 105.039062 C 122.089844 103.222656 123.5625 101.761719 125.367188 101.761719 L 181.101562 101.761719 C 182.90625 101.761719 184.378906 103.222656 184.378906 105.039062 L 184.378906 108.316406 C 184.378906 108.371094 184.355469 108.421875 184.355469 108.472656 C 179.578125 108.816406 174.992188 109.878906 170.730469 111.597656 L 125.367188 111.597656 C 123.5625 111.597656 122.089844 110.125 122.089844 108.316406 Z M 122.089844 124.710938 L 122.089844 121.433594 C 122.089844 119.613281 123.5625 118.152344 125.367188 118.152344 L 159.355469 118.152344 C 155.796875 120.945312 152.648438 124.261719 150.046875 127.988281 L 125.367188 127.988281 C 123.5625 127.988281 122.089844 126.515625 122.089844 124.710938 Z M 122.089844 137.824219 C 122.089844 136.003906 123.5625 134.546875 125.367188 134.546875 L 146.257812 134.546875 C 144.769531 137.644531 143.605469 140.9375 142.851562 144.378906 L 125.933594 144.378906 L 122.089844 139.886719 Z M 133.195312 177.164062 C 131.734375 174.257812 130.453125 171.003906 129.480469 167.328125 L 143.695312 167.328125 C 144.730469 170.800781 146.179688 174.078125 147.972656 177.164062 Z M 99.511719 165.574219 C 100.089844 166.652344 101.203125 167.328125 102.421875 167.328125 C 102.445312 167.328125 102.457031 167.328125 102.472656 167.328125 L 110.988281 167.175781 C 113.523438 176.488281 124.304688 206.25 157.910156 206.25 C 159.332031 206.25 160.777344 206.195312 162.289062 206.082031 C 163.953125 205.964844 165.261719 204.609375 165.3125 202.929688 C 165.375 201.253906 164.160156 199.808594 162.496094 199.5625 C 161.675781 199.449219 147.382812 197.195312 137.265625 183.722656 L 152.558594 183.722656 C 160.972656 193.722656 173.585938 200.101562 187.660156 200.101562 C 192.320312 200.101562 196.90625 199.371094 201.3125 197.988281 C 202.976562 199.292969 205.050781 200.101562 207.328125 200.101562 L 263.0625 200.101562 C 268.492188 200.101562 272.898438 195.695312 272.898438 190.265625 L 272.898438 187 C 272.898438 181.570312 268.492188 177.164062 263.0625 177.164062 L 259.183594 177.164062 C 259.542969 176.128906 259.785156 175.039062 259.785156 173.886719 L 259.785156 170.609375 C 259.785156 168.074219 258.796875 165.792969 257.222656 164.050781 C 258.796875 162.296875 259.785156 160.015625 259.785156 157.496094 L 259.785156 154.214844 C 259.785156 151.679688 258.796875 149.402344 257.222656 147.660156 C 258.796875 145.90625 259.785156 143.625 259.785156 141.101562 L 259.785156 137.824219 C 259.785156 132.394531 255.378906 127.988281 249.949219 127.988281 L 225.273438 127.988281 C 217.550781 116.949219 205.128906 109.484375 190.910156 108.472656 C 190.910156 108.421875 190.9375 108.371094 190.9375 108.316406 L 190.9375 105.039062 C 190.9375 102.671875 190.066406 100.53125 188.671875 98.828125 L 210.761719 76.738281 L 234.683594 97.664062 C 236.015625 98.828125 238.039062 98.726562 239.257812 97.40625 L 269.621094 64.289062 L 269.621094 71.832031 L 276.175781 71.832031 L 276.175781 55.441406 C 276.175781 53.636719 274.703125 52.160156 272.898438 52.160156 L 256.507812 52.160156 L 256.507812 58.71875 L 265.828125 58.71875 L 236.578125 90.621094 L 212.761719 69.785156 C 211.480469 68.644531 209.507812 68.707031 208.289062 69.925781 L 190.808594 87.40625 C 190.554688 85.367188 189.683594 83.539062 188.375 82.089844 C 189.953125 80.335938 190.9375 78.054688 190.9375 75.535156 L 190.9375 72.253906 C 190.9375 66.824219 186.53125 62.421875 181.101562 62.421875 L 125.367188 62.421875 C 119.9375 62.421875 115.535156 66.824219 115.535156 72.253906 L 115.535156 75.535156 C 115.535156 78.054688 116.519531 80.335938 118.09375 82.089844 C 116.519531 83.832031 115.535156 86.113281 115.535156 88.648438 L 115.535156 91.925781 C 115.535156 94.449219 116.519531 96.726562 118.09375 98.484375 C 116.519531 100.222656 115.535156 102.503906 115.535156 105.039062 L 115.535156 108.316406 C 115.535156 110.839844 116.519531 113.121094 118.09375 114.875 C 116.519531 116.617188 115.535156 118.894531 115.535156 121.433594 L 115.535156 124.710938 C 115.535156 127.234375 116.519531 129.511719 118.09375 131.265625 C 116.519531 133.007812 115.535156 135.289062 115.535156 137.824219 L 115.535156 140.039062 L 99.757812 162.144531 C 99.039062 163.140625 98.9375 164.472656 99.511719 165.574219 " fill-opacity="1" fill-rule="nonzero"/></g><g fill="#001729" fill-opacity="1"><g transform="translate(58.135505, 277.414941)"><g><path d="M 19.1875 0.84375 C 13.789062 0.84375 9.773438 -0.585938 7.140625 -3.453125 C 4.515625 -6.316406 3.113281 -10.863281 2.9375 -17.09375 L 13.609375 -18.703125 C 13.660156 -15.117188 14.09375 -12.546875 14.90625 -10.984375 C 15.71875 -9.429688 16.9375 -8.65625 18.5625 -8.65625 C 20.65625 -8.65625 21.703125 -10.023438 21.703125 -12.765625 C 21.703125 -14.953125 21.203125 -16.835938 20.203125 -18.421875 C 19.203125 -20.003906 17.632812 -21.703125 15.5 -23.515625 L 10.609375 -27.78125 C 8.191406 -29.820312 6.316406 -31.992188 4.984375 -34.296875 C 3.660156 -36.609375 3 -39.34375 3 -42.5 C 3 -47.25 4.40625 -50.898438 7.21875 -53.453125 C 10.039062 -56.015625 13.914062 -57.296875 18.84375 -57.296875 C 24.195312 -57.296875 27.835938 -55.738281 29.765625 -52.625 C 31.703125 -49.507812 32.738281 -45.71875 32.875 -41.25 L 22.125 -39.921875 C 22.03125 -42.859375 21.757812 -44.960938 21.3125 -46.234375 C 20.875 -47.515625 19.910156 -48.15625 18.421875 -48.15625 C 17.359375 -48.15625 16.535156 -47.703125 15.953125 -46.796875 C 15.367188 -45.890625 15.078125 -44.878906 15.078125 -43.765625 C 15.078125 -41.859375 15.503906 -40.253906 16.359375 -38.953125 C 17.222656 -37.648438 18.609375 -36.160156 20.515625 -34.484375 L 25.203125 -30.359375 C 27.992188 -27.984375 30.15625 -25.46875 31.6875 -22.8125 C 33.21875 -20.164062 33.984375 -17.03125 33.984375 -13.40625 C 33.984375 -10.75 33.367188 -8.335938 32.140625 -6.171875 C 30.910156 -4.015625 29.175781 -2.304688 26.9375 -1.046875 C 24.707031 0.210938 22.125 0.84375 19.1875 0.84375 Z M 19.1875 0.84375 "/></g></g></g><g fill="#001729" fill-opacity="1"><g transform="translate(99.444792, 277.414941)"><g><path d="M 11.3125 -23.109375 L 0.5625 -56.53125 L 12.359375 -56.53125 L 17.734375 -38.671875 L 22.546875 -56.53125 L 33.84375 -56.53125 L 23.3125 -23.109375 L 23.3125 0 L 11.3125 0 Z M 11.3125 -23.109375 "/></g></g></g><g fill="#001729" fill-opacity="1"><g transform="translate(139.288833, 277.414941)"><g><path d="M 4.1875 -56.53125 L 12.984375 -56.53125 L 24.5625 -29.3125 L 24.5625 -56.53125 L 34.890625 -56.53125 L 34.890625 0 L 26.453125 0 L 14.859375 -29.3125 L 14.859375 0 L 4.1875 0 Z M 4.1875 -56.53125 "/></g></g></g><g fill="#001729" fill-opacity="1"><g transform="translate(183.877456, 277.414941)"><g><path d="M 20.375 0.84375 C 14.238281 0.84375 9.878906 -0.769531 7.296875 -4 C 4.710938 -7.238281 3.421875 -11.90625 3.421875 -18 L 3.421875 -38.390625 C 3.421875 -44.617188 4.695312 -49.328125 7.25 -52.515625 C 9.8125 -55.703125 14.1875 -57.296875 20.375 -57.296875 C 26.289062 -57.296875 30.476562 -55.875 32.9375 -53.03125 C 35.40625 -50.195312 36.640625 -46.175781 36.640625 -40.96875 L 36.640625 -36.078125 L 24.421875 -36.078125 L 24.421875 -41.734375 C 24.421875 -43.921875 24.1875 -45.597656 23.71875 -46.765625 C 23.257812 -47.929688 22.144531 -48.515625 20.375 -48.515625 C 18.613281 -48.515625 17.453125 -47.894531 16.890625 -46.65625 C 16.328125 -45.425781 16.046875 -43.71875 16.046875 -41.53125 L 16.046875 -14.9375 C 16.046875 -12.707031 16.335938 -11 16.921875 -9.8125 C 17.503906 -8.625 18.65625 -8.03125 20.375 -8.03125 C 22.101562 -8.03125 23.207031 -8.625 23.6875 -9.8125 C 24.175781 -11 24.421875 -12.707031 24.421875 -14.9375 L 24.421875 -20.875 L 36.640625 -20.875 L 36.640625 -15.984375 C 36.640625 -10.679688 35.40625 -6.550781 32.9375 -3.59375 C 30.476562 -0.632812 26.289062 0.84375 20.375 0.84375 Z M 20.375 0.84375 "/></g></g></g><g fill="#001729" fill-opacity="1"><g transform="translate(228.605629, 277.414941)"><g><path d="M 4.1875 -56.53125 L 19.75 -56.53125 C 25.9375 -56.53125 30.613281 -55.4375 33.78125 -53.25 C 36.945312 -51.0625 38.53125 -47.175781 38.53125 -41.59375 C 38.53125 -37.832031 38.039062 -34.832031 37.0625 -32.59375 C 36.082031 -30.363281 34.269531 -28.617188 31.625 -27.359375 L 39.359375 0 L 26.453125 0 L 20.234375 -25.34375 L 16.6875 -25.34375 L 16.6875 0 L 4.1875 0 Z M 20.171875 -32.53125 C 22.679688 -32.53125 24.4375 -33.191406 25.4375 -34.515625 C 26.4375 -35.835938 26.9375 -37.828125 26.9375 -40.484375 C 26.9375 -43.046875 26.472656 -44.960938 25.546875 -46.234375 C 24.617188 -47.515625 23.015625 -48.15625 20.734375 -48.15625 L 16.6875 -48.15625 L 16.6875 -32.53125 Z M 20.171875 -32.53125 "/></g></g></g><g fill="#001729" fill-opacity="1"><g transform="translate(275.915418, 277.414941)"><g><path d="M 20.375 0.84375 C 14.28125 0.84375 9.929688 -0.722656 7.328125 -3.859375 C 4.722656 -7.003906 3.421875 -11.648438 3.421875 -17.796875 L 3.421875 -38.8125 C 3.421875 -44.945312 4.722656 -49.5625 7.328125 -52.65625 C 9.929688 -55.75 14.28125 -57.296875 20.375 -57.296875 C 26.519531 -57.296875 30.90625 -55.738281 33.53125 -52.625 C 36.164062 -49.507812 37.484375 -44.90625 37.484375 -38.8125 L 37.484375 -17.796875 C 37.484375 -11.648438 36.164062 -7.003906 33.53125 -3.859375 C 30.90625 -0.722656 26.519531 0.84375 20.375 0.84375 Z M 20.375 -8.03125 C 22.144531 -8.03125 23.304688 -8.625 23.859375 -9.8125 C 24.421875 -11 24.703125 -12.613281 24.703125 -14.65625 L 24.703125 -41.875 C 24.703125 -43.96875 24.421875 -45.597656 23.859375 -46.765625 C 23.304688 -47.929688 22.144531 -48.515625 20.375 -48.515625 C 18.707031 -48.515625 17.59375 -47.921875 17.03125 -46.734375 C 16.46875 -45.546875 16.1875 -43.925781 16.1875 -41.875 L 16.1875 -14.65625 C 16.1875 -12.613281 16.441406 -11 16.953125 -9.8125 C 17.472656 -8.625 18.613281 -8.03125 20.375 -8.03125 Z M 20.375 -8.03125 "/></g></g></g><g fill="#001729" fill-opacity="1"><g transform="translate(160.310925, 318.447146)"><g><path d="M 1.765625 -22.6875 L 6.78125 -22.6875 L 6.78125 -13.5 L 10.28125 -13.5 L 10.28125 -22.6875 L 15.3125 -22.6875 L 15.3125 0 L 10.28125 0 L 10.28125 -9.90625 L 6.78125 -9.90625 L 6.78125 0 L 1.765625 0 Z M 1.765625 -22.6875 "/></g></g></g><g fill="#001729" fill-opacity="1"><g transform="translate(179.571296, 318.447146)"><g><path d="M 8.234375 0.34375 C 6.535156 0.34375 5.191406 0.0664062 4.203125 -0.484375 C 3.210938 -1.035156 2.515625 -1.847656 2.109375 -2.921875 C 1.710938 -3.992188 1.515625 -5.363281 1.515625 -7.03125 L 1.515625 -22.6875 L 6.46875 -22.6875 L 6.46875 -6.265625 C 6.46875 -5.359375 6.582031 -4.632812 6.8125 -4.09375 C 7.050781 -3.550781 7.523438 -3.28125 8.234375 -3.28125 C 8.941406 -3.28125 9.40625 -3.550781 9.625 -4.09375 C 9.851562 -4.632812 9.96875 -5.359375 9.96875 -6.265625 L 9.96875 -22.6875 L 14.953125 -22.6875 L 14.953125 -7.03125 C 14.953125 -5.363281 14.742188 -3.992188 14.328125 -2.921875 C 13.921875 -1.847656 13.226562 -1.035156 12.25 -0.484375 C 11.269531 0.0664062 9.929688 0.34375 8.234375 0.34375 Z M 8.234375 0.34375 "/></g></g></g><g fill="#001729" fill-opacity="1"><g transform="translate(198.215824, 318.447146)"><g><path d="M 1.6875 -22.6875 L 7.59375 -22.6875 C 9.0625 -22.6875 10.3125 -22.53125 11.34375 -22.21875 C 12.382812 -21.90625 13.222656 -21.3125 13.859375 -20.4375 C 14.492188 -19.5625 14.8125 -18.332031 14.8125 -16.75 C 14.8125 -15.40625 14.519531 -14.359375 13.9375 -13.609375 C 13.363281 -12.859375 12.546875 -12.382812 11.484375 -12.1875 C 12.785156 -12.007812 13.78125 -11.453125 14.46875 -10.515625 C 15.164062 -9.585938 15.515625 -8.320312 15.515625 -6.71875 C 15.515625 -2.238281 13.226562 0 8.65625 0 L 1.6875 0 Z M 7.671875 -13.609375 C 8.734375 -13.609375 9.457031 -13.847656 9.84375 -14.328125 C 10.226562 -14.816406 10.421875 -15.578125 10.421875 -16.609375 C 10.421875 -17.503906 10.175781 -18.175781 9.6875 -18.625 C 9.195312 -19.082031 8.488281 -19.3125 7.5625 -19.3125 L 6.6875 -19.3125 L 6.6875 -13.609375 Z M 7.75 -3.5 C 8.820312 -3.5 9.578125 -3.765625 10.015625 -4.296875 C 10.453125 -4.828125 10.671875 -5.660156 10.671875 -6.796875 C 10.671875 -8.085938 10.453125 -8.992188 10.015625 -9.515625 C 9.578125 -10.035156 8.816406 -10.296875 7.734375 -10.296875 L 6.6875 -10.296875 L 6.6875 -3.5 Z M 7.75 -3.5 "/></g></g></g></svg>