<svg xmlns="http://www.w3.org/2000/svg" xmlns:xlink="http://www.w3.org/1999/xlink" width="375" zoomAndPan="magnify" viewBox="0 0 281.25 281.249989" height="375" preserveAspectRatio="xMidYMid meet" version="1.0"><defs><clipPath id="5dc3e23b02"><path d="M 74.050781 39 L 206.308594 39 L 206.308594 154.5 L 74.050781 154.5 Z M 74.050781 39 " clip-rule="nonzero"/></clipPath></defs><path fill="#ffffff" d="M 115.847656 117.808594 L 120.753906 117.808594 L 120.753906 112.902344 L 115.847656 112.902344 L 115.847656 117.808594 " fill-opacity="1" fill-rule="nonzero"/><path fill="#ffffff" d="M 164.894531 112.902344 L 159.988281 112.902344 L 159.988281 117.808594 L 164.894531 117.808594 L 164.894531 112.902344 " fill-opacity="1" fill-rule="nonzero"/><path fill="#ffffff" d="M 137.917969 95.734375 L 137.917969 100.085938 C 133.816406 100.402344 130.5625 103.8125 130.5625 107.996094 L 130.5625 109.835938 C 130.5625 114.222656 134.136719 117.808594 138.53125 117.808594 L 142.207031 117.808594 C 143.90625 117.808594 145.273438 119.175781 145.273438 120.871094 L 145.273438 122.710938 C 145.273438 124.398438 143.90625 125.777344 142.207031 125.777344 L 138.53125 125.777344 C 136.835938 125.777344 135.464844 124.398438 135.464844 122.710938 L 130.5625 122.710938 C 130.5625 126.890625 133.816406 130.300781 137.917969 130.613281 L 137.917969 134.972656 L 142.820312 134.972656 L 142.820312 130.613281 C 146.921875 130.300781 150.179688 126.890625 150.179688 122.710938 L 150.179688 120.871094 C 150.179688 116.476562 146.605469 112.902344 142.207031 112.902344 L 138.53125 112.902344 C 136.835938 112.902344 135.464844 111.523438 135.464844 109.835938 L 135.464844 107.996094 C 135.464844 106.300781 136.835938 104.929688 138.53125 104.929688 L 142.207031 104.929688 C 143.90625 104.929688 145.273438 106.300781 145.273438 107.996094 L 150.179688 107.996094 C 150.179688 103.8125 146.921875 100.402344 142.820312 100.085938 L 142.820312 95.734375 L 137.917969 95.734375 " fill-opacity="1" fill-rule="nonzero"/><g clip-path="url(#5dc3e23b02)"><path fill="#ffffff" d="M 89.042969 109.507812 L 98.261719 120.257812 L 93.773438 120.257812 C 93.046875 120.257812 92.347656 120.582031 91.878906 121.152344 C 91.421875 121.707031 91.226562 122.453125 91.375 123.171875 C 93.566406 134.484375 98.949219 141.734375 104.535156 146.34375 C 90.691406 139.4375 87.511719 123.039062 87.351562 122.125 C 87.140625 120.957031 86.113281 120.117188 84.933594 120.117188 C 84.917969 120.117188 84.90625 120.117188 84.894531 120.117188 L 81.4375 120.171875 Z M 91.324219 54.046875 C 91.324219 52.6875 92.425781 51.59375 93.773438 51.59375 L 135.464844 51.59375 C 136.816406 51.59375 137.917969 52.6875 137.917969 54.046875 L 137.917969 56.5 C 137.917969 57.851562 136.816406 58.953125 135.464844 58.953125 L 93.773438 58.953125 C 92.425781 58.953125 91.324219 57.851562 91.324219 56.5 Z M 169.796875 115.351562 C 169.796875 121.589844 167.863281 127.5 164.242188 132.519531 L 155.082031 132.519531 C 151.019531 132.519531 147.726562 135.816406 147.726562 139.878906 L 147.726562 142.320312 C 147.726562 142.828125 147.785156 143.324219 147.878906 143.804688 C 145.4375 144.445312 142.917969 144.769531 140.371094 144.769531 C 124.144531 144.769531 110.941406 131.574219 110.941406 115.351562 C 110.941406 99.128906 124.144531 85.925781 140.371094 85.925781 C 156.597656 85.925781 169.796875 99.128906 169.796875 115.351562 Z M 186.964844 100.640625 C 188.3125 100.640625 189.414062 101.730469 189.414062 103.09375 L 189.414062 105.542969 C 189.414062 106.894531 188.3125 107.996094 186.964844 107.996094 L 173.886719 107.996094 C 173.324219 105.421875 172.449219 102.957031 171.339844 100.640625 Z M 174.578125 112.902344 L 186.964844 112.902344 C 188.3125 112.902344 189.414062 113.996094 189.414062 115.351562 L 189.414062 117.808594 C 189.414062 119.15625 188.3125 120.257812 186.964844 120.257812 L 174.335938 120.257812 C 174.570312 118.640625 174.703125 117.011719 174.703125 115.351562 C 174.703125 114.519531 174.636719 113.71875 174.578125 112.902344 Z M 170.082031 132.519531 C 171.4375 130.183594 172.5 127.722656 173.257812 125.164062 L 186.964844 125.164062 C 188.3125 125.164062 189.414062 126.253906 189.414062 127.617188 L 189.414062 130.066406 C 189.414062 131.417969 188.3125 132.519531 186.964844 132.519531 Z M 199.222656 139.878906 L 199.222656 142.320312 C 199.222656 143.679688 198.121094 144.769531 196.773438 144.769531 L 155.082031 144.769531 C 153.734375 144.769531 152.632812 143.679688 152.632812 142.320312 L 152.632812 139.878906 C 152.632812 138.519531 153.734375 137.425781 155.082031 137.425781 L 196.773438 137.425781 C 198.121094 137.425781 199.222656 138.519531 199.222656 139.878906 Z M 106.160156 112.902344 C 106.105469 113.71875 106.039062 114.519531 106.039062 115.351562 C 106.039062 117.023438 106.203125 118.648438 106.429688 120.257812 L 104.714844 120.257812 L 98.402344 112.902344 Z M 91.324219 68.761719 L 91.324219 66.308594 C 91.324219 64.949219 92.425781 63.855469 93.773438 63.855469 L 135.464844 63.855469 C 136.816406 63.855469 137.917969 64.949219 137.917969 66.308594 L 137.917969 68.761719 C 137.917969 70.109375 136.816406 71.210938 135.464844 71.210938 L 93.773438 71.210938 C 92.425781 71.210938 91.324219 70.109375 91.324219 68.761719 Z M 91.324219 81.019531 L 91.324219 78.570312 C 91.324219 77.210938 92.425781 76.117188 93.773438 76.117188 L 135.464844 76.117188 C 136.816406 76.117188 137.917969 77.210938 137.917969 78.570312 L 137.917969 81.019531 C 137.917969 81.0625 137.898438 81.101562 137.898438 81.136719 C 134.324219 81.394531 130.894531 82.191406 127.707031 83.476562 L 93.773438 83.476562 C 92.425781 83.476562 91.324219 82.375 91.324219 81.019531 Z M 91.324219 93.285156 L 91.324219 90.832031 C 91.324219 89.472656 92.425781 88.378906 93.773438 88.378906 L 119.199219 88.378906 C 116.535156 90.46875 114.183594 92.949219 112.234375 95.734375 L 93.773438 95.734375 C 92.425781 95.734375 91.324219 94.632812 91.324219 93.285156 Z M 91.324219 103.09375 C 91.324219 101.730469 92.425781 100.640625 93.773438 100.640625 L 109.402344 100.640625 C 108.289062 102.957031 107.417969 105.421875 106.855469 107.996094 L 94.199219 107.996094 L 91.324219 104.636719 Z M 99.628906 132.519531 C 98.539062 130.347656 97.578125 127.910156 96.851562 125.164062 L 107.484375 125.164062 C 108.257812 127.761719 109.34375 130.210938 110.683594 132.519531 Z M 74.433594 123.851562 C 74.867188 124.65625 75.699219 125.164062 76.613281 125.164062 C 76.628906 125.164062 76.636719 125.164062 76.648438 125.164062 L 83.019531 125.046875 C 84.917969 132.015625 92.980469 154.277344 118.117188 154.277344 C 119.179688 154.277344 120.261719 154.234375 121.394531 154.152344 C 122.636719 154.0625 123.617188 153.050781 123.65625 151.792969 C 123.703125 150.539062 122.792969 149.457031 121.546875 149.273438 C 120.933594 149.1875 110.242188 147.503906 102.675781 137.425781 L 114.113281 137.425781 C 120.410156 144.90625 129.84375 149.675781 140.371094 149.675781 C 143.855469 149.675781 147.285156 149.128906 150.582031 148.097656 C 151.828125 149.070312 153.378906 149.675781 155.082031 149.675781 L 196.773438 149.675781 C 200.832031 149.675781 204.128906 146.382812 204.128906 142.320312 L 204.128906 139.878906 C 204.128906 135.816406 200.832031 132.519531 196.773438 132.519531 L 193.871094 132.519531 C 194.140625 131.746094 194.320312 130.929688 194.320312 130.066406 L 194.320312 127.617188 C 194.320312 125.71875 193.582031 124.015625 192.402344 122.710938 C 193.582031 121.398438 194.320312 119.691406 194.320312 117.808594 L 194.320312 115.351562 C 194.320312 113.457031 193.582031 111.753906 192.402344 110.449219 C 193.582031 109.136719 194.320312 107.433594 194.320312 105.542969 L 194.320312 103.09375 C 194.320312 99.03125 191.023438 95.734375 186.964844 95.734375 L 168.503906 95.734375 C 162.730469 87.480469 153.4375 81.894531 142.800781 81.136719 C 142.800781 81.101562 142.820312 81.0625 142.820312 81.019531 L 142.820312 78.570312 C 142.820312 76.800781 142.171875 75.199219 141.128906 73.925781 L 157.652344 57.402344 L 175.542969 73.054688 C 176.539062 73.925781 178.054688 73.847656 178.964844 72.859375 L 201.679688 48.089844 L 201.679688 53.730469 L 206.582031 53.730469 L 206.582031 41.46875 C 206.582031 40.121094 205.480469 39.015625 204.128906 39.015625 L 191.871094 39.015625 L 191.871094 43.921875 L 198.839844 43.921875 L 176.960938 67.785156 L 159.148438 52.199219 C 158.1875 51.347656 156.714844 51.394531 155.800781 52.304688 L 142.726562 65.378906 C 142.535156 63.855469 141.882812 62.488281 140.90625 61.402344 C 142.085938 60.089844 142.820312 58.386719 142.820312 56.5 L 142.820312 54.046875 C 142.820312 49.984375 139.527344 46.691406 135.464844 46.691406 L 93.773438 46.691406 C 89.714844 46.691406 86.421875 49.984375 86.421875 54.046875 L 86.421875 56.5 C 86.421875 58.386719 87.15625 60.089844 88.335938 61.402344 C 87.15625 62.707031 86.421875 64.414062 86.421875 66.308594 L 86.421875 68.761719 C 86.421875 70.648438 87.15625 72.351562 88.335938 73.667969 C 87.15625 74.96875 86.421875 76.671875 86.421875 78.570312 L 86.421875 81.019531 C 86.421875 82.910156 87.15625 84.613281 88.335938 85.925781 C 87.15625 87.230469 86.421875 88.933594 86.421875 90.832031 L 86.421875 93.285156 C 86.421875 95.171875 87.15625 96.875 88.335938 98.1875 C 87.15625 99.492188 86.421875 101.195312 86.421875 103.09375 L 86.421875 104.75 L 74.621094 121.285156 C 74.082031 122.03125 74.003906 123.027344 74.433594 123.851562 " fill-opacity="1" fill-rule="nonzero"/></g><path fill="#ffffff" d="M 57.839844 208.140625 C 53.800781 208.140625 50.796875 207.070312 48.828125 204.925781 C 46.863281 202.78125 45.8125 199.382812 45.683594 194.722656 L 53.664062 193.519531 C 53.703125 196.199219 54.027344 198.121094 54.636719 199.292969 C 55.242188 200.453125 56.15625 201.03125 57.371094 201.03125 C 58.9375 201.03125 59.71875 200.011719 59.71875 197.960938 C 59.71875 196.324219 59.347656 194.914062 58.597656 193.726562 C 57.851562 192.542969 56.675781 191.273438 55.078125 189.917969 L 51.421875 186.726562 C 49.613281 185.203125 48.210938 183.578125 47.214844 181.855469 C 46.222656 180.125 45.730469 178.078125 45.730469 175.71875 C 45.730469 172.164062 46.78125 169.433594 48.886719 167.523438 C 50.996094 165.609375 53.894531 164.648438 57.582031 164.648438 C 61.582031 164.648438 64.308594 165.816406 65.75 168.144531 C 67.199219 170.476562 67.972656 173.308594 68.078125 176.652344 L 60.035156 177.644531 C 59.964844 175.449219 59.761719 173.875 59.425781 172.925781 C 59.101562 171.964844 58.378906 171.488281 57.265625 171.488281 C 56.46875 171.488281 55.855469 171.824219 55.417969 172.503906 C 54.980469 173.179688 54.765625 173.9375 54.765625 174.769531 C 54.765625 176.195312 55.082031 177.398438 55.722656 178.371094 C 56.367188 179.347656 57.40625 180.460938 58.832031 181.714844 L 62.335938 184.800781 C 64.425781 186.574219 66.042969 188.457031 67.1875 190.445312 C 68.332031 192.425781 68.90625 194.769531 68.90625 197.480469 C 68.90625 199.464844 68.445312 201.273438 67.527344 202.890625 C 66.605469 204.503906 65.308594 205.785156 63.636719 206.726562 C 61.964844 207.664062 60.035156 208.140625 57.839844 208.140625 Z M 57.839844 208.140625 " fill-opacity="1" fill-rule="nonzero"/><path fill="#ffffff" d="M 82.847656 190.222656 L 74.804688 165.222656 L 83.628906 165.222656 L 87.652344 178.582031 L 91.25 165.222656 L 99.699219 165.222656 L 91.824219 190.222656 L 91.824219 207.507812 L 82.847656 207.507812 Z M 82.847656 190.222656 " fill-opacity="1" fill-rule="nonzero"/><path fill="#ffffff" d="M 107.320312 165.222656 L 113.902344 165.222656 L 122.5625 185.582031 L 122.5625 165.222656 L 130.289062 165.222656 L 130.289062 207.507812 L 123.976562 207.507812 L 115.304688 185.582031 L 115.304688 207.507812 L 107.320312 207.507812 Z M 107.320312 165.222656 " fill-opacity="1" fill-rule="nonzero"/><path fill="#ffffff" d="M 152.78125 208.140625 C 148.191406 208.140625 144.929688 206.933594 143 204.515625 C 141.066406 202.09375 140.101562 198.601562 140.101562 194.042969 L 140.101562 178.792969 C 140.101562 174.132812 141.054688 170.609375 142.964844 168.226562 C 144.882812 165.839844 148.152344 164.648438 152.78125 164.648438 C 157.207031 164.648438 160.339844 165.714844 162.179688 167.839844 C 164.023438 169.960938 164.949219 172.96875 164.949219 176.863281 L 164.949219 180.519531 L 155.808594 180.519531 L 155.808594 176.289062 C 155.808594 174.652344 155.632812 173.402344 155.28125 172.527344 C 154.9375 171.65625 154.105469 171.21875 152.78125 171.21875 C 151.464844 171.21875 150.597656 171.683594 150.175781 172.609375 C 149.753906 173.527344 149.542969 174.804688 149.542969 176.441406 L 149.542969 196.335938 C 149.542969 198.003906 149.761719 199.28125 150.199219 200.167969 C 150.632812 201.054688 151.496094 201.5 152.78125 201.5 C 154.074219 201.5 154.898438 201.054688 155.257812 200.167969 C 155.625 199.28125 155.808594 198.003906 155.808594 196.335938 L 155.808594 191.894531 L 164.949219 191.894531 L 164.949219 195.550781 C 164.949219 199.519531 164.023438 202.609375 162.179688 204.820312 C 160.339844 207.035156 157.207031 208.140625 152.78125 208.140625 Z M 152.78125 208.140625 " fill-opacity="1" fill-rule="nonzero"/><path fill="#ffffff" d="M 174.128906 165.222656 L 185.769531 165.222656 C 190.398438 165.222656 193.898438 166.039062 196.265625 167.675781 C 198.632812 169.3125 199.820312 172.21875 199.820312 176.394531 C 199.820312 179.210938 199.453125 181.453125 198.722656 183.128906 C 197.988281 184.796875 196.632812 186.101562 194.652344 187.042969 L 200.4375 207.507812 L 190.785156 207.507812 L 186.132812 188.550781 L 183.480469 188.550781 L 183.480469 207.507812 L 174.128906 207.507812 Z M 186.085938 183.175781 C 187.960938 183.175781 189.277344 182.679688 190.027344 181.691406 C 190.773438 180.703125 191.148438 179.210938 191.148438 177.226562 C 191.148438 175.308594 190.800781 173.875 190.109375 172.925781 C 189.410156 171.964844 188.214844 171.488281 186.507812 171.488281 L 183.480469 171.488281 L 183.480469 183.175781 Z M 186.085938 183.175781 " fill-opacity="1" fill-rule="nonzero"/><path fill="#ffffff" d="M 221.625 208.140625 C 217.070312 208.140625 213.8125 206.96875 211.867188 204.621094 C 209.917969 202.269531 208.945312 198.792969 208.945312 194.195312 L 208.945312 178.476562 C 208.945312 173.886719 209.917969 170.433594 211.867188 168.121094 C 213.8125 165.804688 217.070312 164.648438 221.625 164.648438 C 226.222656 164.648438 229.503906 165.816406 231.46875 168.144531 C 233.4375 170.476562 234.425781 173.917969 234.425781 178.476562 L 234.425781 194.195312 C 234.425781 198.792969 233.4375 202.269531 231.46875 204.621094 C 229.503906 206.96875 226.222656 208.140625 221.625 208.140625 Z M 221.625 201.5 C 222.949219 201.5 223.816406 201.054688 224.234375 200.167969 C 224.652344 199.28125 224.863281 198.074219 224.863281 196.542969 L 224.863281 176.183594 C 224.863281 174.617188 224.652344 173.402344 224.234375 172.527344 C 223.816406 171.65625 222.949219 171.21875 221.625 171.21875 C 220.378906 171.21875 219.546875 171.660156 219.125 172.550781 C 218.703125 173.4375 218.496094 174.652344 218.496094 176.183594 L 218.496094 196.542969 C 218.496094 198.074219 218.683594 199.28125 219.066406 200.167969 C 219.457031 201.054688 220.308594 201.5 221.625 201.5 Z M 221.625 201.5 " fill-opacity="1" fill-rule="nonzero"/><path fill="#ffffff" d="M 121.234375 221.230469 L 124.984375 221.230469 L 124.984375 228.101562 L 127.605469 228.101562 L 127.605469 221.230469 L 131.367188 221.230469 L 131.367188 238.199219 L 127.605469 238.199219 L 127.605469 230.789062 L 124.984375 230.789062 L 124.984375 238.199219 L 121.234375 238.199219 Z M 121.234375 221.230469 " fill-opacity="1" fill-rule="nonzero"/><path fill="#ffffff" d="M 140.480469 238.457031 C 139.207031 238.457031 138.203125 238.25 137.464844 237.835938 C 136.722656 237.425781 136.203125 236.816406 135.898438 236.015625 C 135.601562 235.214844 135.453125 234.1875 135.453125 232.941406 L 135.453125 221.230469 L 139.160156 221.230469 L 139.160156 233.511719 C 139.160156 234.191406 139.242188 234.734375 139.417969 235.136719 C 139.59375 235.542969 139.949219 235.746094 140.480469 235.746094 C 141.007812 235.746094 141.355469 235.542969 141.519531 235.136719 C 141.6875 234.734375 141.777344 234.191406 141.777344 233.511719 L 141.777344 221.230469 L 145.503906 221.230469 L 145.503906 232.941406 C 145.503906 234.1875 145.347656 235.214844 145.039062 236.015625 C 144.734375 236.816406 144.214844 237.425781 143.484375 237.835938 C 142.75 238.25 141.746094 238.457031 140.480469 238.457031 Z M 140.480469 238.457031 " fill-opacity="1" fill-rule="nonzero"/><path fill="#ffffff" d="M 149.527344 221.230469 L 153.945312 221.230469 C 155.046875 221.230469 155.980469 221.347656 156.75 221.582031 C 157.527344 221.8125 158.15625 222.257812 158.632812 222.914062 C 159.105469 223.566406 159.347656 224.488281 159.347656 225.671875 C 159.347656 226.675781 159.128906 227.460938 158.691406 228.019531 C 158.261719 228.582031 157.652344 228.9375 156.855469 229.082031 C 157.828125 229.21875 158.574219 229.632812 159.089844 230.335938 C 159.609375 231.03125 159.871094 231.976562 159.871094 233.175781 C 159.871094 236.527344 158.160156 238.199219 154.742188 238.199219 L 149.527344 238.199219 Z M 154.003906 228.019531 C 154.800781 228.019531 155.339844 227.84375 155.628906 227.484375 C 155.914062 227.117188 156.0625 226.546875 156.0625 225.777344 C 156.0625 225.105469 155.878906 224.605469 155.511719 224.269531 C 155.144531 223.925781 154.617188 223.753906 153.921875 223.753906 L 153.269531 223.753906 L 153.269531 228.019531 Z M 154.0625 235.582031 C 154.863281 235.582031 155.429688 235.382812 155.757812 234.984375 C 156.085938 234.589844 156.25 233.964844 156.25 233.117188 C 156.25 232.152344 156.085938 231.472656 155.757812 231.082031 C 155.429688 230.695312 154.859375 230.496094 154.050781 230.496094 L 153.269531 230.496094 L 153.269531 235.582031 Z M 154.0625 235.582031 " fill-opacity="1" fill-rule="nonzero"/></svg>